# xmcd
#
# Track frame offsets: 
#        150
#        22111
#        41860
#        60310
#        71820
#        91566
#        102489
#        119024
#        140508
#        155194
#        171904
#        185515
#        199051
#        218774
#        233672
#        257081
#        274617
#        293977
#        311562
#
# Disc length: 4410 seconds
#
# Revision: 4
# Processed by: cddbd v1.5.2PL0 Copyright (c) Steve Scherf et al.
# Submitted via: ExactAudioCopy v0.95b4
#
DISCID=22113813
DTITLE=Various Artist - Romantic Collection Golden [CD 2)
DYEAR=1900
DGENRE=Disco
TTITLE0=ABBA - The Winner Takes It All
TTITLE1=Richard Marx - Hold On To The Nights
TTITLE2=Amanda Lear - Una Rosa Un Tango
TTITLE3=The Platters - Sixteen Tons
TTITLE4=James Last - Lonesome Shepherd
TTITLE5=Far Corporation - Stairway To Haven
TTITLE6=Status QUO - In The Army Now
TTITLE7=Foreigner - Waiting For A Girl Like You
TTITLE8=Fausto Papetti - Theme From Paradise
TTITLE9=Gloria Gaynor - I Will Survive
TTITLE10=Roy Orbison - Oh, Pretty Woman
TTITLE11=Rafaella Carra - Tango
TTITLE12=James Last and Richard Clayderman - Reflections
TTITLE13=Joe Dassin - Salut
TTITLE14=Mylene Farmer - Regreti
TTITLE15=Julio Iglesias - Nostalgie
TTITLE16=Candy Dulfer - Lily Was Here
TTITLE17=Cliff Richard - Miss You Nights
TTITLE18=London Symphony Orchestra - The Winner Takes It All
EXTD=
EXTT0=
EXTT1=
EXTT2=
EXTT3=
EXTT4=
EXTT5=
EXTT6=
EXTT7=
EXTT8=
EXTT9=
EXTT10=
EXTT11=
EXTT12=
EXTT13=
EXTT14=
EXTT15=
EXTT16=
EXTT17=
EXTT18=
PLAYORDER=
